<svg width="14" height="15" viewBox="0 0 14 15" fill="none" xmlns="http://www.w3.org/2000/svg">
<path d="M13.3002 1.21C12.9102 0.820001 12.2802 0.820001 11.8902 1.21L7.00022 6.09L2.11022 1.2C1.72022 0.810001 1.09021 0.810001 0.700215 1.2C0.310215 1.59 0.310215 2.22 0.700215 2.61L5.59022 7.5L0.700215 12.39C0.310215 12.78 0.310215 13.41 0.700215 13.8C1.09021 14.19 1.72022 14.19 2.11022 13.8L7.00022 8.91L11.8902 13.8C12.2802 14.19 12.9102 14.19 13.3002 13.8C13.6902 13.41 13.6902 12.78 13.3002 12.39L8.41021 7.5L13.3002 2.61C13.6802 2.23 13.6802 1.59 13.3002 1.21Z" fill="#B8BFCC"/>
</svg>
